<?xml version="1.0" encoding="UTF-8" standalone="no"?>
<!-- Created with Inkscape (http://www.inkscape.org/) -->

<svg
   xmlns:dc="http://purl.org/dc/elements/1.1/"
   xmlns:cc="http://creativecommons.org/ns#"
   xmlns:rdf="http://www.w3.org/1999/02/22-rdf-syntax-ns#"
   xmlns:svg="http://www.w3.org/2000/svg"
   xmlns="http://www.w3.org/2000/svg"
   xmlns:sodipodi="http://sodipodi.sourceforge.net/DTD/sodipodi-0.dtd"
   xmlns:inkscape="http://www.inkscape.org/namespaces/inkscape"
   width="96.63195mm"
   height="137.51453mm"
   viewBox="0 0 96.631951 137.51453"
   version="1.1"
   id="svg8"
   inkscape:version="0.92.3 (2405546, 2018-03-11)"
   sodipodi:docname="apigo-logo.svg"
   inkscape:export-filename="C:\Users\CLEVO\Documents\dev\go\src\github.com\elaugier\ApiGo\apigo-logo-60.png"
   inkscape:export-xdpi="15.70016"
   inkscape:export-ydpi="15.70016">
  <defs
     id="defs2">
    <clipPath
       clipPathUnits="userSpaceOnUse"
       id="clipPath819">
      <path
         sodipodi:type="star"
         style="opacity:1;fill:#000000;fill-opacity:1;stroke:none;stroke-width:0.26458332;stroke-opacity:1"
         id="path821"
         sodipodi:sides="5"
         sodipodi:cx="83.464188"
         sodipodi:cy="128.11383"
         sodipodi:r1="31.381214"
         sodipodi:r2="15.690607"
         sodipodi:arg1="1.2604679"
         sodipodi:arg2="1.8887864"
         inkscape:flatsided="false"
         inkscape:rounded="0"
         inkscape:randomized="0"
         d="m 93.047113,157.99607 -14.48872,-14.97827 -20.552616,3.44405 9.767919,-18.40813 -9.626596,-18.48243 20.525625,3.60142 14.603052,-14.86682 2.917616,20.63393 18.651777,9.29423 -18.722438,9.15105 z"
         inkscape:transform-center-x="-2.9612846"
         inkscape:transform-center-y="0.037147779" />
    </clipPath>
  </defs>
  <sodipodi:namedview
     id="base"
     pagecolor="#ffffff"
     bordercolor="#666666"
     borderopacity="1.0"
     inkscape:pageopacity="0.0"
     inkscape:pageshadow="2"
     inkscape:zoom="2.5677183"
     inkscape:cx="87.901066"
     inkscape:cy="274.29049"
     inkscape:document-units="mm"
     inkscape:current-layer="layer1"
     showgrid="false"
     inkscape:window-width="3056"
     inkscape:window-height="1755"
     inkscape:window-x="-13"
     inkscape:window-y="-13"
     inkscape:window-maximized="1" />
  <metadata
     id="metadata5">
    <rdf:RDF>
      <cc:Work
         rdf:about="">
        <dc:format>image/svg+xml</dc:format>
        <dc:type
           rdf:resource="http://purl.org/dc/dcmitype/StillImage" />
        <dc:title />
      </cc:Work>
    </rdf:RDF>
  </metadata>
  <g
     inkscape:label="Calque 1"
     inkscape:groupmode="layer"
     id="layer1"
     transform="translate(-62.237545,-80.611617)">
    <g
       id="g4778"
       inkscape:export-xdpi="96"
       inkscape:export-ydpi="96">
      <path
         inkscape:connector-curvature="0"
         id="path4693"
         transform="scale(0.26458333)"
         d="M 417.68555,304.67383 A 182.45772,182.45772 0 0 0 235.22852,487.13086 182.45772,182.45772 0 0 0 417.68555,669.58789 182.45772,182.45772 0 0 0 600.14453,487.13086 182.45772,182.45772 0 0 0 417.68555,304.67383 Z m 28.23633,21.82812 a 127.7204,127.7204 0 0 1 127.7207,127.72071 127.7204,127.7204 0 0 1 -127.7207,127.7207 127.7204,127.7204 0 0 1 -127.72071,-127.7207 127.7204,127.7204 0 0 1 127.72071,-127.72071 z"
         style="opacity:1;fill:#800080;fill-opacity:0.8627451;stroke:none;stroke-width:0.99999994;stroke-opacity:1" />
      <path
         inkscape:connector-curvature="0"
         id="path4693-7"
         d="m 87.060458,117.91281 a 28.965163,28.965163 0 0 0 28.965062,28.96505 28.965163,28.965163 0 0 0 28.96505,-28.96505 28.965163,28.965163 0 0 0 -28.96505,-28.965355 28.965163,28.965163 0 0 0 -28.965062,28.965355 z m 3.46522,-4.48252 A 20.275613,20.275613 0 0 1 110.80134,93.154635 20.275613,20.275613 0 0 1 131.077,113.43029 20.275613,20.275613 0 0 1 110.80134,133.70595 20.275613,20.275613 0 0 1 90.525678,113.43029 Z"
         style="opacity:1;fill:#800080;fill-opacity:0.8627451;stroke:none;stroke-width:0.15875;stroke-opacity:1" />
      <path
         inkscape:connector-curvature="0"
         id="path4693-7-9"
         d="m 109.53396,132.20043 a 17.379098,17.379098 0 0 0 17.37902,-17.37904 17.379098,17.379098 0 0 0 -17.37902,-17.379039 17.379098,17.379098 0 0 0 -17.379222,17.379039 17.379098,17.379098 0 0 0 17.379222,17.37904 z m -2.68952,-2.07914 a 12.165368,12.165368 0 0 1 -12.165392,-12.16539 12.165368,12.165368 0 0 1 12.165392,-12.1654 12.165368,12.165368 0 0 1 12.1654,12.1654 12.165368,12.165368 0 0 1 -12.1654,12.16539 z"
         style="opacity:1;fill:#800080;fill-opacity:0.8627451;stroke:none;stroke-width:0.09525001;stroke-opacity:1" />
      <path
         inkscape:connector-curvature="0"
         id="path4693-7-9-4"
         d="m 117.69435,118.42781 a 10.427459,10.427459 0 0 0 -10.42743,-10.42741 10.427459,10.427459 0 0 0 -10.427407,10.42741 10.427459,10.427459 0 0 0 10.427407,10.42754 10.427459,10.427459 0 0 0 10.42743,-10.42754 z m -1.24749,1.61371 a 7.2992208,7.2992208 0 0 1 -7.29923,7.29924 7.2992208,7.2992208 0 0 1 -7.29923,-7.29924 7.2992208,7.2992208 0 0 1 7.29923,-7.29924 7.2992208,7.2992208 0 0 1 7.29923,7.29924 z"
         style="opacity:1;fill:#800080;fill-opacity:0.8627451;stroke:none;stroke-width:0.05715001;stroke-opacity:1" />
      <path
         inkscape:connector-curvature="0"
         id="path4693-7-9-4-3"
         d="m 109.22469,113.92313 a 6.2564754,6.2564754 0 0 0 -6.25644,6.25646 6.2564754,6.2564754 0 0 0 6.25644,6.25644 6.2564754,6.2564754 0 0 0 6.25653,-6.25644 6.2564754,6.2564754 0 0 0 -6.25653,-6.25646 z m 0.96823,0.74849 a 4.3795325,4.3795325 0 0 1 4.37955,4.37954 4.3795325,4.3795325 0 0 1 -4.37955,4.37954 4.3795325,4.3795325 0 0 1 -4.37955,-4.37954 4.3795325,4.3795325 0 0 1 4.37955,-4.37954 z"
         style="opacity:1;fill:#800080;fill-opacity:0.8627451;stroke:none;stroke-width:0.03429;stroke-opacity:1" />
    </g>
    <text
       xml:space="preserve"
       style="font-style:normal;font-weight:normal;font-size:10.58333302px;line-height:1.25;font-family:sans-serif;letter-spacing:0px;word-spacing:0px;fill:#000000;fill-opacity:1;stroke:none;stroke-width:0.26458332"
       x="51.31501"
       y="86.896957"
       id="text4782"><tspan
         sodipodi:role="line"
         id="tspan4780"
         x="51.31501"
         y="96.552452"
         style="font-style:normal;font-variant:normal;font-weight:normal;font-stretch:normal;font-family:Mom´sTypewriter;-inkscape-font-specification:Mom´sTypewriter;stroke-width:0.26458332" /></text>
    <text
       xml:space="preserve"
       style="font-style:normal;font-weight:normal;font-size:6.61731577px;line-height:1.25;font-family:sans-serif;letter-spacing:0px;word-spacing:0px;fill:#000000;fill-opacity:1;stroke:none;stroke-width:0.16543289"
       x="62.44363"
       y="197.9248"
       id="text832"><tspan
         sodipodi:role="line"
         id="tspan830"
         x="62.44363"
         y="197.9248"
         style="font-style:normal;font-variant:normal;font-weight:normal;font-stretch:normal;font-size:31.76311493px;font-family:Cubic;-inkscape-font-specification:'Cubic, Normal';font-variant-ligatures:normal;font-variant-caps:normal;font-variant-numeric:normal;font-feature-settings:normal;text-align:start;writing-mode:lr-tb;text-anchor:start;stroke-width:0.16543289">ApiGo</tspan></text>
  </g>
</svg>
